<svg xmlns="http://www.w3.org/2000/svg" xmlns:xlink="http://www.w3.org/1999/xlink" width="272" height="35" viewBox="0 0 272 35">
    <defs>
        <path id="a" d="M0 .094h33.598v34.099H0z"/>
    </defs>
    <g fill="none" fill-rule="evenodd">
        <path fill="#FEFEFE" d="M166.226 34.486h.76V.383h-.76zM76.976 15.592c-.41.355-.936.528-1.61.528h-2.943v-3.75h2.942c.674 0 1.201.173 1.611.528.398.345.59.786.59 1.347 0 .562-.192 1.002-.59 1.347m3.582 1.654c.683-.834 1.03-1.844 1.03-3 0-1.51-.538-2.777-1.6-3.768-1.106-1.033-2.586-1.556-4.4-1.556h-7.186v17.014h4.02v-6.551h2l3.433 6.551h4.654l-4.003-7.218a5.09 5.09 0 0 0 2.052-1.472M62.26 19.898c0 .862-.246 1.517-.752 2.006-.491.486-1.151.722-2.018.722-.866 0-1.526-.236-2.016-.722-.49-.485-.728-1.142-.728-2.006V8.922h-4.022v11.091c0 1.789.658 3.268 1.955 4.399 1.285 1.103 2.903 1.663 4.811 1.663s3.527-.56 4.813-1.665c1.296-1.13 1.953-2.609 1.953-4.397V8.922H62.26v10.976zM37.85 12.37h4.595v13.566h4.021V12.37h4.595V8.922H37.85zM98.617 8.922H93.65l-5.773 6.659V8.92h-4.021v17.015h4.021v-5.118l1.933-2.159 4.401 7.277h4.7l-6.415-10.16zM145.467 22.488V8.922h-4.021v17.014h11.594v-3.448zM132.718 8.922h-4.021v17.014h11.24v-3.448h-7.22z"/>
        <path fill="#FEFEFE" d="M105.862 12.177c1.443 0 2.33.698 2.71 2.135l.058.218h4.094l-.06-.344c-.311-1.76-1.096-3.13-2.33-4.073-1.212-.937-2.725-1.413-4.496-1.413-.706 0-1.381.082-2.003.244-2.658.63-4.41 2.355-5.356 5.28-.341 1.086-.413 2.302-.413 3.131 0 .966.123 2.004.338 2.855.388 1.428 1.098 2.688 2.035 3.628.125.146.262.288.407.424 1.348 1.258 3.027 1.896 4.992 1.896 1.755 0 3.25-.467 4.443-1.387 1.27-.96 2.072-2.338 2.382-4.098l.061-.345h-4.094l-.058.218c-.381 1.437-1.267 2.135-2.71 2.135-.937 0-1.632-.134-2.395-.803a4.63 4.63 0 0 1-.901-1.296c-.244-.505-.504-1.63-.504-3.275 0-2.038.451-3.413 1.42-4.328.58-.547 1.336-.802 2.38-.802M114.357 25.936h12.173v-3.448h-8.151v-3.404h6.941v-3.448h-6.941V12.37h8.151V8.922h-12.173z"/>
        <g transform="translate(0 .286)">
            <mask id="b" fill="#fff">
                <use xlink:href="#a"/>
            </mask>
            <path fill="#FEC30C" d="M30.965 8.068c-1.249-1.97-2.763-3.584-4.531-4.838-1.77-1.253-3.793-2.148-6.064-2.68C16.644-.324 13.02.07 9.528 1.634a16.394 16.394 0 0 0-5.11 3.57C2.581 7.097 1.255 9.241.446 11.634l-.02.066c-.029.084-.054.17-.081.255-.83 2.767-.054 4.296 1.165 3.016.047-.056.097-.11.145-.164.02-.022.037-.042.056-.066 1.426-1.793 3.694-3.287 3.694-3.287l.001.001a21.721 21.721 0 0 1 1.802-1.129c.713-.417 1.458-.8 2.153-1.059 0 0 .648-.296.82-1.195l.01-.05.005-.026c.115-.748.918-2.806 3.187-2.941a3.602 3.602 0 0 1 2.038.325c1.095.52 1.934 1.561 2.104 2.817.135.998-.103 1.939-.613 2.684a1.628 1.628 0 0 1-.093.128l-.03.04c-.426.55-1.01.977-1.705 1.217-.417.155-.84.233-1.247.244h-.002c-.255.033-.537 0-.82-.07a2.973 2.973 0 0 1-.865-.313c-.439-.206-.794-.438-.925-.558a.717.717 0 0 0-.323-.174c-.24-.04-.436.007-.578.068l-.005.002a.981.981 0 0 0-.185.107c-.543.453-1.06.928-1.55 1.426-1.287 1.352-2.367 2.888-2.874 3.647a20.991 20.991 0 0 0-1.385 2.595 22.632 22.632 0 0 0-.921 2.447l-.044.146c-1.56 5.347 1.25 8.434 3.604 5.209a25.106 25.106 0 0 1 .399-.614c2.467-4.271 7.531-7.354 7.531-7.354h.003c.31-.198.623-.388.94-.57v-.002l.06-.032c.867-.498 1.76-.943 2.679-1.333.816-.363 1.684-.703 2.404-.878 0 0 .843-.219 1.07-1.257a3.554 3.554 0 0 1 1.92-2.42 3.732 3.732 0 0 1 1.862-.408h.004c.207-.003.382.021.53.065a3.722 3.722 0 0 1 3 3.24c.222 2.03-1.187 3.861-3.204 4.114-1.005.126-1.916-.094-2.693-.682-.871-.363-1.54-.13-1.782-.017-.76.415-1.49.875-2.187 1.38a24.713 24.713 0 0 0-2.739 2.384 20.658 20.658 0 0 0-2.49 3.133l-.028.046a22.08 22.08 0 0 0-2.084 4.326c-.047.136-.094.272-.139.41-.664 2.245.776 3.14 2.44 3.464 0 0 1.304.252 3.182.114l.293-.027c.474-.059.95-.11 1.42-.19 3.24-.551 6.106-1.904 8.552-4.102 3.08-2.768 4.934-6.217 5.51-10.313.578-4.102-.231-7.947-2.452-11.45" mask="url(#b)"/>
        </g>
        <text fill="#FFF" font-family="GreycliffCF-Medium, Greycliff CF" font-size="24.7" font-weight="400">
            <tspan x="175.18" y="25.76">Teknoloji</tspan>
        </text>
    </g>
</svg>
