<svg xmlns="http://www.w3.org/2000/svg" xmlns:xlink="http://www.w3.org/1999/xlink" width="162" height="20" viewBox="0 0 162 20">
    <defs>
        <path id="a" d="M0 .08h19.308v19.57H0z"/>
        <path id="c" d="M.114.002h6.663v9.776H.114z"/>
    </defs>
    <g fill="none" fill-rule="evenodd">
        <g>
            <mask id="b" fill="#fff">
                <use xlink:href="#a"/>
            </mask>
            <path fill="#FFF" d="M17.795 4.661c-.718-1.132-1.588-2.06-2.604-2.78-1.017-.72-2.18-1.234-3.485-1.54-2.141-.502-4.223-.275-6.23.623a9.423 9.423 0 0 0-2.937 2.052C1.484 4.103.721 5.336.256 6.71l-.012.037-.046.147c-.476 1.59-.03 2.469.67 1.733l.083-.094.032-.038c.82-1.03 2.123-1.889 2.123-1.889.333-.23.678-.447 1.036-.648.41-.24.838-.46 1.238-.609 0 0 .372-.17.47-.686l.006-.029.003-.015c.067-.43.528-1.613 1.832-1.69.408-.056.813.016 1.171.186.63.3 1.112.898 1.21 1.62a2.19 2.19 0 0 1-.406 1.615l-.018.023c-.244.317-.58.562-.98.7-.24.089-.483.134-.716.14H7.95c-.147.02-.31 0-.472-.04a1.717 1.717 0 0 1-.497-.18 2.488 2.488 0 0 1-.531-.32.409.409 0 0 0-.186-.1.585.585 0 0 0-.335.04.563.563 0 0 0-.106.061c-.313.26-.61.533-.891.82-.74.776-1.36 1.659-1.652 2.095a12.65 12.65 0 0 0-.796 1.491c-.173.39-.336.809-.483 1.26l-.02.06c-.008.03-.017.058-.026.086l-.025.085c-.897 3.072.718 4.846 2.071 2.993a15.06 15.06 0 0 1 .229-.353c1.418-2.454 4.328-4.226 4.328-4.226h.002c.178-.114.358-.223.54-.328l.034-.02a14.378 14.378 0 0 1 1.54-.765c.469-.209.968-.404 1.381-.504 0 0 .485-.126.615-.723a2.042 2.042 0 0 1 1.104-1.39 2.147 2.147 0 0 1 1.07-.235h.002c.12-.002.22.012.305.037.89.172 1.618.9 1.723 1.862.129 1.166-.682 2.219-1.84 2.364-.578.073-1.101-.053-1.548-.391-.5-.21-.886-.075-1.024-.01-.437.238-.856.502-1.257.792a14.228 14.228 0 0 0-1.574 1.37 11.86 11.86 0 0 0-1.367 1.703l-.063.098-.017.026c-.407.65-.84 1.481-1.198 2.487l-.08.235c-.38 1.29.446 1.804 1.403 1.991.151.019.304.034.457.045.038.003.075.014.112.02h1.26l.168-.015c.272-.034.546-.063.816-.109 1.862-.317 3.508-1.095 4.914-2.358 1.77-1.59 2.836-3.572 3.167-5.926.332-2.357-.133-4.567-1.41-6.58" mask="url(#b)"/>
        </g>
        <path fill="#FFF" d="M46.234 8.818c-.235.204-.538.304-.926.304h-1.69V6.967h1.69c.388 0 .69.1.926.303.229.198.34.452.34.774a.966.966 0 0 1-.34.774m2.058.95c.393-.479.592-1.059.592-1.724 0-.867-.31-1.595-.92-2.165-.634-.593-1.485-.894-2.528-.894h-4.129v9.777h2.31v-3.765h1.15l1.973 3.765h2.673l-2.3-4.148c.473-.19.87-.473 1.179-.845M37.778 11.292c0 .496-.14.873-.433 1.153-.282.28-.66.415-1.158.415-.498 0-.877-.135-1.16-.415-.28-.279-.417-.656-.417-1.153V4.986h-2.311v6.373c0 1.027.377 1.877 1.123 2.527.738.634 1.668.956 2.765.956 1.096 0 2.026-.322 2.765-.957.745-.649 1.122-1.499 1.122-2.526V4.986h-2.296v6.306zM23.752 6.967h2.64v7.795h2.31V6.967h2.64V4.985h-7.59zM58.67 4.985h-2.854l-3.317 3.827V4.985h-2.311v9.777h2.31v-2.94l1.112-1.241 2.528 4.181h2.701l-3.687-5.838z"/>
        <g transform="translate(83.165 4.984)">
            <mask id="d" fill="#fff">
                <use xlink:href="#c"/>
            </mask>
            <path fill="#FFF" d="M2.425 7.797V.002H.115v9.776h6.662V7.797z" mask="url(#d)"/>
        </g>
        <path fill="#FFF" d="M78.264 4.985h-2.31v9.777h6.458v-1.981h-4.148zM62.833 6.856c.828 0 1.338.401 1.557 1.227l.033.125h2.353l-.035-.198c-.179-1.011-.63-1.799-1.34-2.34-.696-.539-1.565-.812-2.583-.812-.405 0-.793.047-1.15.14-1.528.362-2.534 1.354-3.078 3.034-.196.624-.237 1.323-.237 1.8 0 .554.07 1.151.194 1.64.223.82.63 1.544 1.17 2.084.071.084.15.166.234.244.774.723 1.739 1.09 2.867 1.09 1.01 0 1.869-.269 2.554-.798.73-.55 1.19-1.343 1.369-2.354l.035-.199h-2.353l-.033.126c-.22.826-.729 1.227-1.557 1.227-.539 0-.938-.077-1.377-.462a2.663 2.663 0 0 1-.518-.744c-.14-.29-.29-.938-.29-1.882 0-1.171.26-1.961.817-2.487.333-.315.768-.46 1.368-.46M67.714 14.762h6.995v-1.981h-4.684v-1.956h3.989V8.843h-3.989V6.967h4.684V4.985h-6.995z"/>
        <text fill="#FFF" font-family="GreycliffCF-Medium, Greycliff CF" font-size="14" font-weight="400" transform="translate(0 -1)">
            <tspan x="106" y="14">Tedarikci</tspan>
        </text>
        <path stroke="#FFF" stroke-linecap="round" d="M98.5 5.5v9"/>
    </g>
</svg>
